<svg xmlns="http://www.w3.org/2000/svg" width="512" height="512" xml:space="preserve"><circle fill="#323653" cx="256" cy="256" r="255.931"/><path opacity=".1" d="M377.676 158.512 164.399 383.645 290.4 509.646c93.279-12.724 175.996-76.616 208.115-171.873a257.461 257.461 0 0 0 10.78-44.887L377.676 158.512z"/><g fill="#E3DFF0"><circle cx="228.159" cy="30.494" r="5.416"/><path d="m239.947 25.753-12.219 3.667-11.356 5.814 12.218-3.669z"/><path d="m223.418 18.705 3.668 12.219L232.9 42.28l-3.669-12.218z"/><circle cx="377.676" cy="429.989" r="5.415"/><path d="m389.464 425.248-12.219 3.668-11.356 5.813 12.218-3.667z"/><path d="m372.936 418.2 3.668 12.22 5.813 11.354-3.668-12.216z"/><g><circle cx="32.039" cy="335.942" r="5.415"/><path d="m43.827 331.201-12.218 3.668-11.357 5.814 12.219-3.667z"/><path d="m27.299 324.153 3.668 12.221 5.813 11.355-3.668-12.218z"/></g><g><circle cx="421.408" cy="91.689" r="8.078"/><path d="m438.993 84.617-18.229 5.471-16.939 8.672 18.227-5.472z"/><path d="m414.338 74.102 5.47 18.23 8.672 16.939-5.472-18.226z"/></g></g><path fill="#F6863C" d="M209.548 404.406s-.902 1.563-1.384 3.713c4.639 3.125 14.246 5.146 21.244 6.186 1.129-2.687.737-3.999.737-3.999s-11.734-1.624-20.597-5.9zM269.494 102.331s1.047-1.911 1.256-4.198c-8.352-.938-26.6-.373-38.218 1.757-1.115 3.093 2.01 5.968 2.01 5.968s19.447-3.682 34.952-3.527z"/><circle fill="#FCC59C" cx="256" cy="256.826" r="156.438"/><circle fill="#F89F67" cx="211.672" cy="239.294" r="29.286"/><path fill="#F6863C" d="M190.218 241.793c0-14.978 12.142-27.12 27.119-27.12a26.99 26.99 0 0 1 16.802 5.841c-5.372-6.421-13.441-10.506-22.467-10.506-16.174 0-29.286 13.111-29.286 29.286s13.112 29.286 29.286 29.286c.417 0 .832-.014 1.245-.031-12.875-2.111-22.699-13.285-22.699-26.756z"/><circle fill="#F89F67" cx="302.108" cy="305.506" r="36.631"/><path fill="#F6863C" d="M275.274 308.632c0-18.732 15.185-33.92 33.92-33.92a33.756 33.756 0 0 1 21.016 7.306c-6.719-8.031-16.812-13.143-28.102-13.143-20.23 0-36.631 16.4-36.631 36.631s16.4 36.631 36.631 36.631c.521 0 1.041-.019 1.557-.039-16.103-2.641-28.391-16.617-28.391-33.466z"/><circle fill="#F89F67" cx="298.326" cy="174.514" r="17.028"/><path fill="#F6863C" d="M285.852 175.967c0-8.708 7.061-15.768 15.769-15.768 3.69 0 7.082 1.272 9.77 3.396-3.125-3.733-7.816-6.108-13.063-6.108-9.403 0-17.028 7.624-17.028 17.027s7.625 17.028 17.028 17.028c.242 0 .482-.009.723-.019-7.487-1.227-13.199-7.724-13.199-15.556z"/><circle fill="#F89F67" cx="365.883" cy="218.207" r="17.028"/><path fill="#F6863C" d="M353.409 219.66c0-8.708 7.059-15.768 15.767-15.768 3.691 0 7.083 1.271 9.77 3.396a16.984 16.984 0 0 0-13.063-6.108c-9.403 0-17.026 7.623-17.026 17.027s7.623 17.028 17.026 17.028c.244 0 .484-.009.725-.019-7.488-1.227-13.199-7.723-13.199-15.556z"/><circle fill="#F89F67" cx="357.409" cy="163.079" r="8.473"/><path fill="#F6863C" d="M351.203 163.801a7.846 7.846 0 0 1 12.707-6.156 8.473 8.473 0 1 0-6.141 13.897 7.848 7.848 0 0 1-6.566-7.741z"/><g><circle fill="#F89F67" cx="184.589" cy="163.079" r="18.927"/><path fill="#F6863C" d="M170.724 164.694c0-9.68 7.847-17.526 17.527-17.526 4.102 0 7.872 1.413 10.858 3.774-3.471-4.149-8.687-6.79-14.52-6.79-10.453 0-18.927 8.473-18.927 18.927 0 10.453 8.474 18.926 18.927 18.926.27 0 .537-.009.804-.02-8.32-1.365-14.669-8.586-14.669-17.291z"/></g><g><circle fill="#F89F67" cx="165.663" cy="339.817" r="10.852"/><path fill="#F6863C" d="M157.713 340.742c0-5.55 4.499-10.049 10.049-10.049 2.352 0 4.514.812 6.226 2.165a10.823 10.823 0 0 0-8.325-3.893c-5.993 0-10.852 4.856-10.852 10.852 0 5.992 4.858 10.852 10.852 10.852.155 0 .308-.006.461-.012-4.77-.783-8.411-4.923-8.411-9.915z"/></g><g><ellipse transform="scale(-1) rotate(-37.728 -1087.024 1017.872)" fill="#F89F67" cx="347.769" cy="371.41" rx="10.852" ry="7.172"/><path fill="#F6863C" d="M353.681 366.062c2.245 2.901.506 8.005-3.884 11.401-1.861 1.439-3.897 2.339-5.799 2.678 2.538.027 5.514-1.012 8.159-3.06 4.739-3.668 6.617-9.178 4.194-12.312-2.423-3.132-8.232-2.699-12.973.969-.121.093-.24.19-.359.287 4.091-2.509 8.642-2.572 10.662.037z"/></g><g><ellipse transform="rotate(111.106 119.068 235.23)" fill="#F89F67" cx="119.063" cy="235.235" rx="10.852" ry="7.172"/><path fill="#F6863C" d="M121.355 227.599c3.421 1.32 4.574 6.588 2.577 11.766-.847 2.194-2.125 4.018-3.576 5.292 2.185-1.291 4.193-3.72 5.398-6.841 2.158-5.591.913-11.278-2.783-12.706-3.694-1.426-8.439 1.951-10.599 7.542-.056.144-.107.289-.159.433 2.201-4.265 6.064-6.674 9.142-5.486z"/></g><path opacity=".1" d="M281.128 102.408c30.3 32.516 49.082 77.671 49.082 127.598 0 84.545-53.846 155.413-126.306 174.363 16.297 5.754 33.828 8.896 52.095 8.896 86.399 0 156.438-70.039 156.438-156.438.001-77.843-56.859-142.396-131.309-154.419z"/></svg>