<svg xmlns="http://www.w3.org/2000/svg" viewBox="0 0 128 128" style="enable-background:new 0 0 128 128" xml:space="preserve"><path d="M90.8 95.8c1-9.6.9-20.1.1-28.5l2.3-2.3c2.9-2.9 1.6-9.1-3.2-9.4-1.5-.1-2.9.4-4 1.5l-2.4 2.4c-8.5-1-17-1.4-25.5-1.3-8.6-.2-17.1.2-25.6 1.2L30.1 57c-2-2-5.2-2-7.2 0s-2.1 5.9 0 8l2.3 2.3c-.8 8.4-1 18.9.1 28.5l-2.4 2.4c-2 2-2 5.2 0 7.2s5.2 2 7.2 0l2.4-2.4c15.6 1.8 35.1 1.9 51.1 0l2.4 2.4c2 2 5.2 2 7.2 0s2-5.2 0-7.2l-2.4-2.4zm-.1 7.1c-.6.6-1.6.6-2.3 0l-3-3c-.4-.4-1-.6-1.5-.5-11 1.9-40.6 1.9-51.7 0-.6-.1-1.1.1-1.5.5l-3 3c-.6.6-1.7.6-2.3-.1-.6-.6-.6-1.6 0-2.2l3-3c.4-.4.6-.9.5-1.5-1.2-9.8-1-20.8-.1-29.3.1-.5-.1-1.1-.5-1.5l-2.9-2.9c-.9-.9-.4-2.5-.1-2.9.6-.8 1.7-.8 2.4-.1l3 3c.4.4 1 .6 1.5.5 5.1-.9 15-1.4 25.9-1.4s20.7.5 25.8 1.4c.6.1 1.1-.1 1.5-.5l3-3c.6-.6 1.6-.6 2.3 0 .6.6.9 2.1 0 3l-2.9 2.9c-.4.4-.6.9-.5 1.5 1 8.6 1.1 19.6-.1 29.3-.1.5.1 1.1.5 1.5l3 3c.6.7.6 1.7 0 2.3zM87.4 21.8c-2.4-6-8.1-9.9-14.5-9.9-4.5 0-8.8 2-11.8 5.4-6.5-.2-11.9 4.3-13.2 10.3h-.4c-4.3 0-7.7 3.5-7.8 7.7s3.5 7.7 7.7 7.8h41.5c5.9 0 10.7-4.8 10.7-10.7.1-6.6-5.7-11.6-12.2-10.6zM89 39.5H47.5c-2.3 0-4.2-1.9-4.2-4.2 0-2.3 1.9-4.2 4.2-4.2h1.9c.9 0 1.7-.7 1.7-1.6.4-4.9 4.5-8.7 9.4-8.7 1 0 1.9.4 2.7-.6 2.3-3 5.8-4.8 9.6-4.8 5.5 0 10.3 3.8 11.7 8.9.3 1 1.3 1.5 2.3 1.2 4.6-1.5 9.4 1.9 9.4 6.8 0 4-3.2 7.2-7.2 7.2zM31.1 51.8c3 0 5.5-2.5 5.5-5.5s-2.5-5.5-5.5-5.5-5.5 2.5-5.5 5.5c0 3.1 2.4 5.5 5.5 5.5zm0-7.5c1.1 0 2 .9 2 2s-.9 2-2 2-2-.9-2-2 .8-2 2-2z"/><path d="m64.1 30.1.1-1.4h-5.5v1.7h2.8l-2.9 3.1v1.4h5.6v-1.7h-3zM73.2 28.2v-1.5h-6.8v1.8h4l-4.1 4.9v1.5h7v-1.8h-4.2zM81 30.1v-1.4h-5.5v1.7h2.9l-3 3.1v1.4h5.7v-1.7h-3z"/></svg>